<?xml version="1.0" standalone="no"?><!DOCTYPE svg PUBLIC "-//W3C//DTD SVG 1.1//EN" "http://www.w3.org/Graphics/SVG/1.1/DTD/svg11.dtd"><svg t="1723194845168" class="icon" viewBox="0 0 1024 1024" version="1.1" xmlns="http://www.w3.org/2000/svg" p-id="1718" xmlns:xlink="http://www.w3.org/1999/xlink" width="200" height="200"><path d="M900.48 85.333333C921.6 85.333333 938.666667 102.421333 938.666667 123.52v509.738667C938.666667 801.941333 801.92 938.666667 633.258667 938.666667H123.52A38.186667 38.186667 0 0 1 85.333333 900.48V390.762667C85.333333 222.058667 222.08 85.333333 390.741333 85.333333H900.48zM874.666667 149.333333H390.741333C259.498667 149.333333 152.725333 254.08 149.418667 384.512L149.333333 390.741333V874.666667h483.925334c131.242667 0 238.016-104.746667 241.322666-235.178667l0.085334-6.229333V149.333333z m-362.666667 152.896c115.84 0 209.770667 93.909333 209.770667 209.770667 0 115.84-93.909333 209.770667-209.770667 209.770667-115.84 0-209.770667-93.909333-209.770667-209.770667 0-115.84 93.909333-209.770667 209.770667-209.770667z m0 64a145.770667 145.770667 0 1 0 0 291.541334 145.770667 145.770667 0 0 0 0-291.541334z" fill="#1296db" p-id="1719"></path></svg>